<svg xmlns:mydata="http://www.w3.org/2000/svg" mydata:contrastcolor="ffffff" mydata:template="Default" mydata:presentation="2.5" mydata:layouttype="undefined" mydata:specialfontid="undefined" mydata:id1="004" mydata:id2="534" mydata:companyname="kitobbek" mydata:companytagline="" version="1.1" xmlns="http://www.w3.org/2000/svg" xmlns:xlink="http://www.w3.org/1999/xlink" viewBox="0 45 550 380"><g fill="#101820" fill-rule="nonzero" stroke="none" stroke-width="1" stroke-linecap="butt" stroke-linejoin="miter" stroke-miterlimit="10" stroke-dasharray="" stroke-dashoffset="0" font-family="none" font-weight="none" font-size="none" text-anchor="none" style="mix-blend-mode: normal"><g data-paper-data="{&quot;isGlobalGroup&quot;:true,&quot;bounds&quot;:{&quot;x&quot;:69.93810855809546,&quot;y&quot;:196.56215484563737,&quot;width&quot;:410.12378288380904,&quot;height&quot;:76.87569030872518}}"><g data-paper-data="{&quot;isPrimaryText&quot;:true}"><path d="M175.99979,249.59541h-4.88816v-29.63929h4.65539c1.78456,0 2.2501,-0.85349 2.2501,-2.2501v-6.28477c0,-1.39662 -0.46554,-2.2501 -2.2501,-2.2501h-21.56996c-1.78456,0 -2.2501,0.85349 -2.2501,2.2501v6.28477c0,1.39662 0.46554,2.2501 2.2501,2.2501h4.73298v29.63929h-4.88816c-1.78456,0 -2.2501,0.85349 -2.2501,2.2501v6.12959c0,1.39662 0.46554,2.2501 2.2501,2.2501h21.95791c1.78456,0 2.2501,-0.85349 2.2501,-2.2501v-6.12959c0,-1.39662 -0.46554,-2.2501 -2.2501,-2.2501z" data-paper-data="{&quot;glyphName&quot;:&quot;I&quot;,&quot;glyphIndex&quot;:1,&quot;word&quot;:1}"></path><path d="M222.78643,209.17114h-36.00166c-1.78456,0 -2.2501,0.85349 -2.2501,2.2501v6.43995c0,1.39662 0.46554,2.2501 2.2501,2.2501h11.94883v37.86381c0,1.78456 0.85349,2.2501 2.2501,2.2501h7.68139c1.39662,0 2.2501,-0.46554 2.2501,-2.2501v-37.86381h11.87124c1.78456,0 2.2501,-0.85349 2.2501,-2.2501v-6.43995c0,-1.39662 -0.46554,-2.2501 -2.2501,-2.2501z" data-paper-data="{&quot;glyphName&quot;:&quot;T&quot;,&quot;glyphIndex&quot;:2,&quot;word&quot;:1}"></path><path d="M272.90942,225.54258c0,-12.25918 -11.63847,-17.53529 -20.87165,-17.53529c-9.23318,0 -20.71647,5.2761 -20.71647,17.53529v18.31119c0,12.25918 11.48329,17.53529 20.71647,17.53529c9.23318,0 20.87165,-5.2761 20.87165,-17.53529zM260.72783,242.76751c0,4.96575 -3.56913,7.83657 -8.69005,7.83657c-5.04334,0 -8.61247,-2.87082 -8.61247,-7.83657v-16.13867c0,-4.96575 3.56913,-7.83657 8.61247,-7.83657c5.12093,0 8.69005,2.87082 8.69005,7.83657z" data-paper-data="{&quot;glyphName&quot;:&quot;O&quot;,&quot;glyphIndex&quot;:3,&quot;word&quot;:1}"></path><path d="M319.23052,233.7671c0.69831,-0.31036 5.66405,-2.79323 5.66405,-10.6298c0,-7.29344 -5.43128,-14.04375 -18.07842,-14.04375h-21.72514c-1.78456,0 -2.2501,0.85349 -2.2501,2.2501v46.63146c0,1.39662 0.46554,2.2501 2.2501,2.2501h22.81139c10.78498,0 18.46637,-5.04334 18.46637,-14.89724c0,-8.3797 -6.51754,-11.32811 -7.13826,-11.56088zM308.05759,249.20746h-13.03508v-29.17376h11.79365c4.03467,0 6.43995,0.85349 6.43995,4.34503c0,3.026 -1.93974,4.65539 -6.43995,4.65539v0h-1.00867c-1.78456,0 -2.2501,0.85349 -2.2501,2.2501v5.89682c0,1.39662 0.46554,2.2501 2.2501,2.2501h1.78456c3.72431,0 6.43995,1.08626 6.43995,4.73298c0,3.49154 -2.17251,5.04334 -5.97441,5.04334z" data-paper-data="{&quot;glyphName&quot;:&quot;B&quot;,&quot;glyphIndex&quot;:4,&quot;word&quot;:1}"></path><path d="M372.5347,233.7671c0.69831,-0.31036 5.66405,-2.79323 5.66405,-10.6298c0,-7.29344 -5.43128,-14.04375 -18.07842,-14.04375h-21.72514c-1.78456,0 -2.2501,0.85349 -2.2501,2.2501v46.63146c0,1.39662 0.46554,2.2501 2.2501,2.2501h22.81139c10.78498,0 18.46637,-5.04334 18.46637,-14.89724c0,-8.3797 -6.51754,-11.32811 -7.13826,-11.56088zM361.36177,249.20746h-13.03508v-29.17376h11.79365c4.03467,0 6.43995,0.85349 6.43995,4.34503c0,3.026 -1.93974,4.65539 -6.43995,4.65539v0h-1.00867c-1.78456,0 -2.2501,0.85349 -2.2501,2.2501v5.89682c0,1.39662 0.46554,2.2501 2.2501,2.2501h1.78456c3.72431,0 6.43995,1.08626 6.43995,4.73298c0,3.49154 -2.17251,5.04334 -5.97441,5.04334z" data-paper-data="{&quot;glyphName&quot;:&quot;B&quot;,&quot;glyphIndex&quot;:5,&quot;word&quot;:1}"></path><path d="M424.28708,249.44023h-34.29468c-1.39662,0 -2.2501,0.46554 -2.2501,2.2501v6.36236c0,1.78456 0.85349,2.2501 2.2501,2.2501h34.29468c1.39662,0 2.2501,-0.46554 2.2501,-2.2501v-6.36236c0,-1.78456 -0.85349,-2.2501 -2.2501,-2.2501zM420.40759,229.26689h-26.5357c-1.39662,0 -2.2501,0.46554 -2.2501,2.2501v6.36236c0,1.78456 0.85349,2.2501 2.2501,2.2501h26.5357c1.39662,0 2.2501,-0.46554 2.2501,-2.2501v-6.36236c0,-1.78456 -0.85349,-2.2501 -2.2501,-2.2501zM424.28708,209.24873h-34.29468c-1.39662,0 -2.2501,0.46554 -2.2501,2.2501v6.36236c0,1.78456 0.85349,2.2501 2.2501,2.2501h34.29468c1.39662,0 2.2501,-0.46554 2.2501,-2.2501v-6.36236c0,-1.78456 -0.85349,-2.2501 -2.2501,-2.2501z" data-paper-data="{&quot;glyphName&quot;:&quot;ξ&quot;,&quot;glyphIndex&quot;:6,&quot;word&quot;:1}"></path><path d="M478.83269,209.17114h-10.47462c-1.78456,0 -2.32769,0.15518 -3.87949,1.86215l-16.06108,17.69047v-17.30252c0,-1.78456 -0.85349,-2.2501 -2.17251,-2.2501h-7.68139c-1.47421,0 -2.2501,0.46554 -2.2501,2.2501v46.55387c0,1.78456 0.7759,2.2501 2.2501,2.2501h7.68139c1.31903,0 2.17251,-0.46554 2.17251,-2.2501v-13.81098l4.81057,-5.04334c4.18985,6.98308 11.09534,18.62155 11.09534,18.62155c1.00867,1.62939 2.01733,2.48287 3.87949,2.48287h9.46595c1.47421,0 1.78456,-1.47421 1.16385,-2.48287l-16.6818,-27.46678l17.4577,-18.93191c0.69831,-0.69831 0.69831,-2.17251 -0.7759,-2.17251z" data-paper-data="{&quot;glyphName&quot;:&quot;K&quot;,&quot;glyphIndex&quot;:7,&quot;lastGlyphOfWord&quot;:true,&quot;word&quot;:1}"></path><g data-paper-data="{&quot;fillRule&quot;:&quot;nonzero&quot;,&quot;fillRuleOriginal&quot;:&quot;nonzero&quot;,&quot;isIcon&quot;:true,&quot;iconStyle&quot;:&quot;icon-in-text&quot;,&quot;selectedEffects&quot;:{&quot;container&quot;:&quot;circle_simple_filledplus&quot;,&quot;transformation&quot;:&quot;rotate0;translate50&quot;,&quot;pattern&quot;:&quot;&quot;},&quot;bounds&quot;:{&quot;x&quot;:69.93810855809546,&quot;y&quot;:196.56215484563737,&quot;width&quot;:76.87569415250992,&quot;height&quot;:76.87569030872518},&quot;widthRatioIconToContainer&quot;:0.543255786624751,&quot;heightRatioIconToContainer&quot;:0.664112055804169,&quot;relativeBoundsIconToContainer&quot;:{&quot;top&quot;:-0.003926134018227049,&quot;left&quot;:-8.279098384520572e-7},&quot;iconType&quot;:&quot;initial&quot;,&quot;initialText&quot;:&quot;K&quot;,&quot;rawInitialId&quot;:419,&quot;blockLetter&quot;:&quot;O&quot;,&quot;blockLetterId&quot;:0,&quot;monogramSpecial&quot;:&quot;volume&quot;,&quot;line&quot;:1,&quot;iconInPrimaryText&quot;:true,&quot;suitableAsStandaloneIcon&quot;:true}"><path d="M74.22114,234.99994c0,-18.86315 15.29161,-34.15476 34.15476,-34.15476c18.86315,0 34.15476,15.29161 34.15476,34.15476c0,18.86315 -15.29161,34.15476 -34.15476,34.15476c-18.86315,0 -34.15476,-15.29161 -34.15476,-34.15476zM99.63692,211.74685l-5.61135,-2.5757l-5.61135,2.5757l5.61135,2.5757zM128.2456,211.74685l-5.61135,-2.5757l-5.61135,2.5757l5.61135,2.5757zM93.38165,260.04125v-25.29707l0.91989,-0.64393l7.17517,3.31162l14.44233,19.77771l4.87543,2.20774l-12.97049,-17.56996v-7.45113l13.89039,-19.04179l-6.0713,-2.85167l-13.52243,19.50174l-0.82791,0.18398l-7.54312,-3.40361l-0.36796,-0.64393v-12.69453l-5.88732,-2.66769v44.61482zM100.55681,224.44138v-11.68265l-5.88732,2.66769v11.68265zM129.25749,257.37356v-5.97931l-11.86662,-16.19012v-0.82791l11.86662,-16.19012v-5.42737l-6.16329,2.75968l-14.07437,19.50174v6.0713l13.89039,19.13378zM101.20074,225.54525l-5.61135,2.5757l5.70334,2.66769l2.75968,-3.95554zM94.6695,235.75607v24.28518l5.88732,-2.66769v-18.9498zM146.80661,235.75725l-0.009,0.38406l-0.01282,0.38384l-0.01665,0.38384l-0.02025,0.38361l-0.02407,0.38338l-0.0279,0.38338l-0.03172,0.38293l-0.03532,0.38271l-0.03937,0.38226l-0.0432,0.38203l-0.0468,0.38158l-0.05085,0.38113l-0.05467,0.38046l-0.05872,0.38001l-0.06232,0.37956l-0.06615,0.37866l-0.0702,0.37821l-0.07402,0.37731l-0.07785,0.37663l-0.08167,0.37573l-0.0855,0.37506l-0.08932,0.37393l-0.09315,0.37326l-0.09697,0.37191l-0.1008,0.37124l-0.1044,0.37011l-0.10822,0.36898l-0.11205,0.36786l-0.11564,0.36651l-0.11947,0.36561l-0.12307,0.36404l-0.12667,0.36291l-0.13027,0.36178l-0.13387,0.36021l-0.13747,0.35886l-0.14084,0.35751l-0.14445,0.35593l-0.14782,0.35459l-0.08707,0.20429l-0.15254,0.35054l-0.15682,0.35076l-0.16019,0.34918l-0.16357,0.34761l-0.16717,0.34604l-0.17032,0.34446l-0.17414,0.34266l-0.17729,0.34109l-0.18089,0.33929l-0.18427,0.33726l-0.18742,0.33569l-0.19124,0.33366l-0.19439,0.33164l-0.19777,0.32984l-0.20092,0.32759l-0.20452,0.32579l-0.20767,0.32354l-0.21104,0.32151l-0.21442,0.31926l-0.21757,0.31701l-0.22072,0.31499l-0.22387,0.31251l-0.22702,0.31026l-0.23017,0.30801l-0.23331,0.30554l-0.23647,0.30329l-0.23939,0.30081l-0.24232,0.29834l-0.24524,0.29609l-0.24839,0.29339l-0.25109,0.29091l-0.25402,0.28844l-0.25671,0.28574l-0.25964,0.28326l-0.26212,0.28079l-0.26504,0.27809l-0.26774,0.27539l-0.27021,0.27291l-0.15727,0.15659l-0.27291,0.26752l-0.27696,0.26594l-0.27944,0.26346l-0.28214,0.26077l-0.28461,0.25806l-0.28732,0.25514l-0.28979,0.25244l-0.29226,0.24952l-0.29474,0.24682l-0.29721,0.24367l-0.29969,0.24074l-0.30216,0.23759l-0.30441,0.23467l-0.30711,0.23151l-0.30914,0.22859l-0.31161,0.22522l-0.31386,0.22229l-0.31611,0.21892l-0.31814,0.21577l-0.32061,0.21239l-0.32264,0.20924l-0.32466,0.20609l-0.32691,0.20249l-0.32871,0.19934l-0.33096,0.19597l-0.33276,0.19259l-0.33479,0.18922l-0.33658,0.18562l-0.33839,0.18247l-0.34019,0.17887l-0.34199,0.17549l-0.34379,0.17212l-0.34536,0.16874l-0.34694,0.16514l-0.34851,0.16177l-0.35008,0.15817l-0.35166,0.15502l-0.35301,0.1512l-0.34874,0.14579l-0.35593,0.14445l-0.35729,0.14107l-0.35886,0.13747l-0.36021,0.13409l-0.36156,0.1305l-0.36291,0.12667l-0.36404,0.12329l-0.36539,0.11947l-0.36651,0.11587l-0.36786,0.11205l-0.36898,0.10844l-0.36988,0.10462l-0.37101,0.1008l-0.37214,0.0972l-0.37304,0.09337l-0.37416,0.08932l-0.37483,0.08572l-0.37573,0.0819l-0.37663,0.07807l-0.37731,0.07402l-0.37799,0.0702l-0.37889,0.0666l-0.37934,0.06255l-0.38001,0.05872l-0.38068,0.05467l-0.38113,0.05107l-0.38158,0.04702l-0.38181,0.04342l-0.38248,0.03937l-0.38271,0.03555l-0.38293,0.03195l-0.38338,0.0279l-0.38338,0.0243l-0.38384,0.02048l-0.38384,0.01665l-0.38384,0.01305l-0.38395,0.00923l-0.38399,0.0054l-0.38397,0.00203l-0.37781,-0.0018l-0.38388,-0.0054l-0.3839,-0.009l-0.38388,-0.01282l-0.38377,-0.01665l-0.38366,-0.02025l-0.38345,-0.02407l-0.38325,-0.0279l-0.383,-0.03172l-0.38271,-0.03532l-0.38235,-0.03937l-0.38197,-0.0432l-0.38154,-0.0468l-0.38111,-0.05085l-0.38055,-0.05467l-0.38003,-0.05872l-0.37942,-0.06232l-0.37877,-0.06615l-0.3781,-0.0702l-0.37738,-0.07402l-0.37663,-0.07785l-0.37578,-0.08167l-0.37497,-0.0855l-0.37402,-0.08932l-0.37312,-0.09315l-0.37214,-0.09697l-0.37112,-0.1008l-0.37006,-0.1044l-0.36896,-0.10822l-0.36784,-0.11205l-0.36665,-0.11564l-0.36547,-0.11947l-0.36419,-0.12307l-0.36296,-0.12667l-0.36158,-0.13027l-0.36028,-0.13387l-0.35888,-0.13747l-0.35749,-0.14084l-0.35603,-0.14445l-0.35456,-0.14782l-0.20431,-0.08707l-0.35049,-0.15254l-0.35071,-0.15682l-0.34923,-0.16019l-0.34765,-0.16357l-0.34608,-0.16717l-0.34441,-0.17054l-0.34271,-0.17392l-0.34102,-0.17729l-0.33922,-0.18089l-0.33742,-0.18427l-0.33555,-0.18764l-0.33366,-0.19102l-0.33173,-0.19439l-0.32975,-0.19777l-0.32772,-0.20114l-0.32568,-0.20429l-0.32359,-0.20789l-0.32146,-0.21082l-0.31929,-0.21442l-0.3171,-0.21757l-0.31486,-0.22072l-0.31259,-0.22387l-0.3103,-0.22702l-0.30798,-0.23017l-0.30561,-0.23331l-0.30322,-0.23647l-0.30082,-0.23939l-0.29838,-0.24232l-0.29591,-0.24524l-0.29343,-0.24839l-0.29094,-0.25109l-0.2884,-0.25402l-0.28585,-0.25671l-0.28326,-0.25964l-0.28072,-0.26212l-0.27811,-0.26504l-0.2755,-0.26774l-0.27287,-0.27021l-0.15646,-0.15727l-0.26747,-0.27291l-0.26614,-0.27696l-0.26346,-0.27944l-0.26077,-0.28214l-0.258,-0.28461l-0.25523,-0.28732l-0.25239,-0.28979l-0.24954,-0.29226l-0.24664,-0.29474l-0.24369,-0.29721l-0.24072,-0.29969l-0.2377,-0.30216l-0.23467,-0.30441l-0.23158,-0.30689l-0.22848,-0.30936l-0.22533,-0.31161l-0.22218,-0.31386l-0.21896,-0.31589l-0.21574,-0.31836l-0.2125,-0.32061l-0.20924,-0.32264l-0.20593,-0.32466l-0.20261,-0.32669l-0.1993,-0.32894l-0.19592,-0.33096l-0.19255,-0.33276l-0.18917,-0.33479l-0.18577,-0.33658l-0.18238,-0.33839l-0.17894,-0.34019l-0.17551,-0.34199l-0.17207,-0.34379l-0.16863,-0.34536l-0.16519,-0.34694l-0.16175,-0.34851l-0.15828,-0.35008l-0.15486,-0.35166l-0.15137,-0.35301l-0.14564,-0.34874l-0.14451,-0.35593l-0.14107,-0.35751l-0.13756,-0.35864l-0.13398,-0.36021l-0.13043,-0.36156l-0.12681,-0.36291l-0.12318,-0.36404l-0.11951,-0.36539l-0.11582,-0.36651l-0.11213,-0.36786l-0.1084,-0.36898l-0.10464,-0.36988l-0.10089,-0.37101l-0.09711,-0.37214l-0.09328,-0.37304l-0.0895,-0.37416l-0.08565,-0.37483l-0.08183,-0.37573l-0.07798,-0.37663l-0.07414,-0.37731l-0.07029,-0.37821l-0.06642,-0.37866l-0.06255,-0.37934l-0.0587,-0.38023l-0.05485,-0.38046l-0.05098,-0.38113l-0.04711,-0.38158l-0.04329,-0.38181l-0.03946,-0.38248l-0.03562,-0.38271l-0.03182,-0.38293l-0.02799,-0.38338l-0.02423,-0.38338l-0.02043,-0.38384l-0.01669,-0.38384l-0.01296,-0.38384l-0.00925,-0.38406l-0.00554,-0.38384l-0.00187,-0.38406l0.00173,-0.37776l0.0054,-0.38384l0.00909,-0.38406l0.0128,-0.38384l0.01654,-0.38361l0.0203,-0.38384l0.02407,-0.38338l0.02785,-0.38316l0.03166,-0.38316l0.03546,-0.38271l0.03931,-0.38226l0.04313,-0.38197l0.04698,-0.38156l0.05083,-0.38109l0.05467,-0.38057l0.05854,-0.38001l0.06239,-0.37942l0.06626,-0.37879l0.07013,-0.3781l0.07398,-0.37738l0.07783,-0.37661l0.08167,-0.3758l0.08552,-0.37495l0.08934,-0.37405l0.09315,-0.3731l0.09695,-0.37214l0.10073,-0.37112l0.10451,-0.37006l0.10824,-0.36898l0.112,-0.36782l0.11569,-0.36667l0.11938,-0.36545l0.12305,-0.36421l0.12667,-0.36293l0.13029,-0.3616l0.13387,-0.36025l0.13742,-0.35891l0.14094,-0.35746l0.14445,-0.35605l0.14789,-0.35456l0.08703,-0.20427l0.15254,-0.35049l0.15673,-0.35074l0.16017,-0.34923l0.16361,-0.34765l0.16708,-0.34608l0.1705,-0.34441l0.17396,-0.34273l0.17738,-0.341l0.1808,-0.33922l0.18424,-0.33742l0.18762,-0.33557l0.19102,-0.33366l0.19441,-0.33173l0.19777,-0.32975l0.2011,-0.32772l0.20445,-0.32568l0.20773,-0.3236l0.21104,-0.32144l0.21428,-0.31931l0.21752,-0.31708l0.22074,-0.31488l0.22391,-0.3126l0.22708,-0.31029l0.23019,-0.30797l0.23329,-0.30563l0.23635,-0.30322l0.23937,-0.30081l0.24238,-0.29839l0.24533,-0.29591l0.24823,-0.29343l0.25113,-0.29092l0.25399,-0.2884l0.25678,-0.28585l0.25955,-0.28329l0.2623,-0.2807l0.26497,-0.27811l0.2676,-0.2755l0.27021,-0.27288l0.15734,-0.15652l0.273,-0.26746l0.27689,-0.26613l0.2795,-0.26346l0.2821,-0.26076l0.28468,-0.25801l0.28722,-0.25522l0.28977,-0.25239l0.29226,-0.24954l0.29478,-0.24664l0.29726,-0.24369l0.2997,-0.24072l0.30213,-0.2377l0.30453,-0.23464l0.3069,-0.23158l0.30924,-0.22848l0.31156,-0.22535l0.31384,-0.22216l0.31609,-0.21898l0.3183,-0.21574l0.32049,-0.21248l0.32264,-0.20924l0.32474,-0.20593l0.32682,-0.20261l0.32886,-0.19927l0.33085,-0.19594l0.33281,-0.19255l0.33472,-0.18917l0.33661,-0.18577l0.33843,-0.18236l0.34023,-0.17894l0.34199,-0.17551l0.3437,-0.17207l0.34536,-0.16865l0.34698,-0.16519l0.34855,-0.16172l0.35011,-0.1583l0.35159,-0.15484l0.35303,-0.1514l0.3488,-0.14559l0.35587,-0.14453l0.3574,-0.14107l0.35879,-0.13754l0.36017,-0.13401l0.36154,-0.13043l0.36284,-0.12681l0.36413,-0.12318l0.36539,-0.11951l0.3666,-0.11582l0.36777,-0.11213l0.3689,-0.1084l0.37002,-0.10464l0.37106,-0.10089l0.37209,-0.09711l0.37308,-0.09328l0.374,-0.0895l0.3749,-0.08565l0.37578,-0.08183l0.37657,-0.07798l0.37736,-0.07414l0.3781,-0.07029l0.37875,-0.06642l0.37942,-0.06257l0.38001,-0.05868l0.38057,-0.05485l0.38109,-0.05098l0.38156,-0.04711l0.38199,-0.04329l0.38237,-0.03946l0.38271,-0.03562l0.38303,-0.03182l0.38327,-0.02799l0.3835,-0.02423l0.38368,-0.02045l0.38381,-0.01667l0.38392,-0.01296l0.38397,-0.00925l0.38399,-0.00554l0.38397,-0.00187l0.37781,0.00173l0.38388,0.0054l0.38397,0.00909l0.38384,0.0128l0.38384,0.01654l0.38361,0.0203l0.38338,0.02407l0.38338,0.02785l0.38293,0.03166l0.38271,0.03546l0.38226,0.03931l0.38203,0.04313l0.38158,0.04698l0.38113,0.05083l0.38046,0.05467l0.38001,0.05854l0.37956,0.06241l0.37866,0.06626l0.37821,0.07011l0.37731,0.074l0.37663,0.07783l0.37573,0.08167l0.37506,0.0855l0.37393,0.08934l0.37304,0.09315l0.37214,0.09695l0.37124,0.10075l0.37011,0.10449l0.36898,0.10826l0.36786,0.11198l0.36651,0.11569l0.36539,0.11938l0.36426,0.12305l0.36291,0.12667l0.36178,0.13029l0.36021,0.13387l0.35886,0.13742l0.35751,0.14094l0.35593,0.14445l0.35459,0.14789l0.20429,0.087l0.35054,0.15254l0.35054,0.15673l0.34941,0.16017l0.34761,0.16361l0.34604,0.16708l0.34446,0.1705l0.34266,0.17396l0.34109,0.17738l0.33929,0.1808l0.33726,0.18424l0.33569,0.18762l0.33366,0.19102l0.33164,0.19441l0.32984,0.19777l0.32759,0.20112l0.32579,0.20443l0.32354,0.20773l0.32151,0.21104l0.31926,0.21428l0.31701,0.21752l0.31499,0.22074l0.31251,0.22394l0.31026,0.22706l0.30801,0.23021l0.30554,0.23327l0.30329,0.23635l0.30081,0.23939l0.29834,0.24236l0.29609,0.24533l0.29339,0.24825l0.29091,0.25113l0.28844,0.25397l0.28574,0.2568l0.28326,0.25956l0.28079,0.26228l0.27809,0.26497l0.27539,0.26762l0.27291,0.27022l0.15659,0.15736l0.26752,0.27299l0.26616,0.2769l0.26346,0.27951l0.26077,0.2821l0.25784,0.28467l0.25537,0.28722l0.25221,0.28976l0.24974,0.29228l0.24659,0.29478l0.24367,0.29725l0.24074,0.29971l0.23759,0.30212l0.23467,0.30452l0.23151,0.30689l0.22859,0.30925l0.22544,0.31157l0.22207,0.31384l0.21892,0.31607l0.21577,0.31832l0.21262,0.32048l0.20924,0.32264l0.20587,0.32475l0.20249,0.3268l0.19934,0.32887l0.19597,0.33085l0.19259,0.33281l0.18922,0.33472l0.18562,0.33661l0.18247,0.33843l0.17887,0.34023l0.17549,0.34196l0.17212,0.3437l0.16874,0.34536l0.16514,0.34698l0.16177,0.34855l0.15817,0.35008l0.15502,0.35162l0.1512,0.35303l0.14579,0.3488l0.14445,0.35587l0.14107,0.35738l0.13747,0.35882l0.13409,0.36019l0.1305,0.36152l0.12667,0.36286l0.12329,0.36413l0.11947,0.36536l0.11587,0.3666l0.11205,0.36777l0.10844,0.3689l0.10462,0.37002l0.10102,0.37106l0.09697,0.37209l0.09337,0.37308l0.08954,0.374l0.0855,0.3749l0.0819,0.37576l0.07807,0.37659l0.07402,0.37736l0.0702,0.37807l0.0666,0.37879l0.06255,0.37938l0.05872,0.38005l0.05467,0.38055l0.05107,0.38109l0.04702,0.38156l0.04342,0.38199l0.03937,0.38237l0.03555,0.38271l0.03195,0.38293l0.0279,0.38338l0.0243,0.38338l0.02048,0.38384l0.01665,0.38384l0.01305,0.38384l0.00923,0.38406l0.0054,0.38384l0.00203,0.38406v0.00855l-0.0018,0.36921zM145.0087,234.63748l-0.00517,-0.36674l-0.00878,-0.36651l-0.01237,-0.36629l-0.01575,-0.36629l-0.01935,-0.36584l-0.02317,-0.36584l-0.02655,-0.36539l-0.03015,-0.36516l-0.03398,-0.36471l-0.03757,-0.36449l-0.04117,-0.36397l-0.04477,-0.3635l-0.04837,-0.363l-0.0522,-0.36251l-0.0558,-0.3619l-0.0594,-0.36136l-0.06322,-0.36064l-0.06682,-0.36003l-0.07042,-0.35931l-0.07425,-0.35854l-0.07785,-0.35778l-0.08145,-0.35699l-0.08505,-0.35609l-0.08887,-0.35524l-0.09225,-0.35434l-0.09607,-0.35337l-0.09945,-0.3524l-0.10327,-0.35139l-0.10665,-0.35033l-0.11025,-0.34928l-0.11385,-0.34817l-0.11745,-0.34702l-0.12059,-0.34586l-0.12442,-0.34469l-0.12757,-0.34345l-0.13117,-0.34221l-0.13454,-0.34093l-0.1377,-0.33971l-0.13882,-0.33278l-0.14445,-0.33695l-0.14782,-0.33549l-0.15075,-0.33397l-0.15434,-0.33245l-0.15727,-0.3309l-0.16064,-0.32927l-0.16402,-0.32763l-0.16717,-0.32595l-0.17054,-0.32423l-0.17369,-0.32248l-0.17684,-0.3207l-0.17999,-0.31888l-0.18337,-0.31704l-0.18652,-0.31517l-0.18967,-0.31321l-0.19304,-0.31127l-0.19597,-0.30929l-0.19912,-0.30729l-0.20227,-0.30525l-0.20542,-0.30315l-0.20857,-0.30108l-0.21149,-0.29895l-0.21442,-0.29679l-0.21757,-0.2946l-0.22049,-0.29242l-0.22364,-0.29017l-0.22634,-0.28792l-0.22927,-0.28567l-0.23219,-0.28338l-0.23512,-0.28103l-0.23781,-0.27874l-0.24074,-0.27638l-0.24322,-0.274l-0.24614,-0.27163l-0.24884,-0.26924l-0.25131,-0.26683l-0.25402,-0.26442l-0.25784,-0.26328l-0.14692,-0.14778l-0.26054,-0.25807l-0.26301,-0.25552l-0.26526,-0.25293l-0.26774,-0.25031l-0.27021,-0.24766l-0.27246,-0.24496l-0.27494,-0.24225l-0.27741,-0.23948l-0.27966,-0.2367l-0.28191,-0.23388l-0.28416,-0.23102l-0.28664,-0.22815l-0.28889,-0.22524l-0.29091,-0.22229l-0.29339,-0.21932l-0.29541,-0.21635l-0.29766,-0.21331l-0.29991,-0.21028l-0.30194,-0.20722l-0.30396,-0.20414l-0.30599,-0.20105l-0.30801,-0.1979l-0.31026,-0.19478l-0.31206,-0.1916l-0.31386,-0.18843l-0.31611,-0.18526l-0.31769,-0.18204l-0.31971,-0.17882l-0.32129,-0.17561l-0.32331,-0.17239l-0.32489,-0.16915l-0.32669,-0.16589l-0.32849,-0.16265l-0.32984,-0.15938l-0.33164,-0.15612l-0.33299,-0.15288l-0.33479,-0.14962l-0.33771,-0.1471l-0.19147,-0.08165l-0.33839,-0.14118l-0.33951,-0.13785l-0.34086,-0.13448l-0.34221,-0.13112l-0.34333,-0.12768l-0.34469,-0.12426l-0.34581,-0.1208l-0.34694,-0.11733l-0.34829,-0.11382l-0.34918,-0.11027l-0.35031,-0.10676l-0.35121,-0.10318l-0.35256,-0.0996l-0.35324,-0.096l-0.35436,-0.0924l-0.35526,-0.08878l-0.35616,-0.08514l-0.35684,-0.08152l-0.35774,-0.07785l-0.35864,-0.07418l-0.35931,-0.07053l-0.35999,-0.06687l-0.36066,-0.06318l-0.36133,-0.05953l-0.36201,-0.05584l-0.36246,-0.05218l-0.36313,-0.04851l-0.36336,-0.04484l-0.36404,-0.0412l-0.36449,-0.03753l-0.36471,-0.03391l-0.36516,-0.03026l-0.36561,-0.02666l-0.36584,-0.02304l-0.36584,-0.01944l-0.36629,-0.01588l-0.36651,-0.01231l-0.36655,-0.00875l-0.36676,-0.00524l-0.36077,-0.00173l-0.36674,0.00171l-0.36665,0.0052l-0.36653,0.00875l-0.3664,0.01226l-0.3662,0.01584l-0.36599,0.01941l-0.36572,0.02302l-0.36545,0.02662l-0.36514,0.03024l-0.36478,0.03386l-0.36439,0.03751l-0.36397,0.04115l-0.3635,0.04482l-0.36302,0.04846l-0.36248,0.05215l-0.36192,0.0558l-0.36131,0.05949l-0.36068,0.06315l-0.36001,0.06682l-0.35931,0.07049l-0.35854,0.07416l-0.35778,0.07783l-0.35697,0.08147l-0.35614,0.08511l-0.35524,0.08876l-0.35432,0.09236l-0.35339,0.09598l-0.35238,0.09958l-0.35139,0.10316l-0.35036,0.10671l-0.34928,0.11027l-0.34815,0.1138l-0.34702,0.11729l-0.34588,0.1208l-0.34466,0.12424l-0.34347,0.12768l-0.34219,0.1311l-0.34095,0.13448l-0.33969,0.13787l-0.33278,0.13884l-0.33695,0.1444l-0.33549,0.14764l-0.334,0.15092l-0.33245,0.15416l-0.3309,0.15743l-0.32927,0.16069l-0.32763,0.16393l-0.32595,0.16719l-0.32423,0.17043l-0.32248,0.17367l-0.3207,0.17689l-0.3189,0.1801l-0.31704,0.18332l-0.31514,0.18654l-0.31323,0.18969l-0.31127,0.19288l-0.3093,0.19601l-0.30728,0.19916l-0.30524,0.20229l-0.30317,0.20539l-0.30107,0.20846l-0.29895,0.21152l-0.29679,0.21453l-0.29461,0.21757l-0.29241,0.22054l-0.29018,0.22349l-0.28793,0.22641l-0.28566,0.22933l-0.28336,0.23219l-0.28105,0.23504l-0.27872,0.23784l-0.27639,0.24062l-0.27399,0.24337l-0.27163,0.24608l-0.26925,0.24876l-0.26684,0.2514l-0.26441,0.25402l-0.26328,0.25789l-0.14775,0.1469l-0.25809,0.2605l-0.2555,0.26293l-0.25294,0.26536l-0.25033,0.26777l-0.24765,0.27017l-0.24497,0.27256l-0.24225,0.27495l-0.23948,0.27728l-0.23669,0.27964l-0.23388,0.28196l-0.23102,0.28427l-0.22814,0.28655l-0.22524,0.28882l-0.22229,0.29107l-0.21932,0.29328l-0.21635,0.29548l-0.21331,0.29764l-0.21028,0.2998l-0.20724,0.30191l-0.20414,0.30401l-0.20103,0.30605l-0.1979,0.3081l-0.19478,0.31011l-0.1916,0.31206l-0.18843,0.31402l-0.18524,0.31591l-0.18206,0.3178l-0.17882,0.31965l-0.17561,0.32144l-0.17239,0.32322l-0.16913,0.32495l-0.16591,0.32666l-0.16262,0.32833l-0.15941,0.32995l-0.15612,0.33155l-0.15288,0.33312l-0.14962,0.33463l-0.14708,0.33785l-0.0817,0.19156l-0.14118,0.33825l-0.13785,0.3396l-0.1345,0.34088l-0.1311,0.34217l-0.12771,0.3434l-0.12426,0.34464l-0.1208,0.34581l-0.11731,0.34701l-0.11382,0.34813l-0.11029,0.34923l-0.10673,0.35031l-0.10318,0.35137l-0.0996,0.35238l-0.09603,0.35335l-0.09238,0.35432l-0.08878,0.35522l-0.08516,0.35612l-0.08149,0.35695l-0.07785,0.35778l-0.0742,0.35857l-0.07053,0.35929l-0.06684,0.36003l-0.0632,0.36068l-0.05951,0.36133l-0.05584,0.36192l-0.05218,0.36251l-0.04851,0.36305l-0.04484,0.36352l-0.0412,0.36399l-0.03755,0.36442l-0.03388,0.36471l-0.03029,0.36539l-0.02664,0.36539l-0.02304,0.36584l-0.01944,0.36606l-0.01588,0.36606l-0.01231,0.36651l-0.00875,0.36651l-0.00524,0.36674l-0.00173,0.36089l0.00171,0.36674l0.0052,0.36674l0.00875,0.36651l0.01226,0.36629l0.01584,0.36629l0.01941,0.36584l0.02302,0.36584l0.02662,0.36539l0.03024,0.36516l0.03386,0.36471l0.03751,0.36449l0.04115,0.36404l0.04482,0.36336l0.04846,0.36313l0.05215,0.36246l0.0558,0.36178l0.05949,0.36133l0.06315,0.36089l0.06682,0.35999l0.07049,0.35931l0.07418,0.35841l0.0778,0.35774l0.08147,0.35706l0.08511,0.35616l0.08876,0.35526l0.09236,0.35436l0.09598,0.35324l0.09958,0.35256l0.10316,0.35121l0.10671,0.35054l0.11027,0.34918l0.1138,0.34806l0.11729,0.34716l0.12078,0.34581l0.12426,0.34469l0.12768,0.34333l0.13108,0.34221l0.1345,0.34109l0.13785,0.33974l0.13884,0.33276l0.14442,0.33704l0.14764,0.33546l0.15092,0.33389l0.15416,0.33254l0.15743,0.33074l0.16069,0.32939l0.16393,0.32759l0.16719,0.32601l0.17043,0.32421l0.17367,0.32241l0.17689,0.32084l0.18013,0.31881l0.18332,0.31701l0.18652,0.31521l0.18971,0.31319l0.19288,0.31116l0.19601,0.30936l0.19916,0.30734l0.20229,0.30531l0.20537,0.30306l0.20848,0.30104l0.21152,0.29901l0.21455,0.29676l0.21754,0.29451l0.22054,0.29249l0.22349,0.29024l0.22643,0.28776l0.22931,0.28574l0.23221,0.28349l0.23502,0.28102l0.23784,0.27876l0.24063,0.27629l0.24337,0.27404l0.24607,0.27156l0.24877,0.26931l0.25141,0.26684l0.25402,0.26436l0.25788,0.26324l0.14685,0.14782l0.26049,0.25806l0.26295,0.25537l0.26536,0.25311l0.26776,0.25019l0.27019,0.24772l0.27256,0.24501l0.27494,0.24209l0.27729,0.23961l0.27964,0.23669l0.28197,0.23377l0.28427,0.23107l0.28655,0.22814l0.28882,0.22522l0.29106,0.22229l0.29328,0.21936l0.29548,0.21622l0.29765,0.21352l0.2998,0.21014l0.30191,0.20722l0.30401,0.20429l0.30606,0.20092l0.30809,0.19799l0.31011,0.19462l0.31208,0.19169l0.314,0.18854l0.31591,0.18517l0.31782,0.18202l0.31962,0.17887l0.32142,0.17549l0.32324,0.17257l0.32495,0.16897l0.32666,0.16604l0.32833,0.16267l0.32995,0.15929l0.33155,0.15614l0.3331,0.15299l0.33465,0.14939l0.33785,0.14714l0.19156,0.08167l0.33827,0.14129l0.33958,0.13792l0.34088,0.13432l0.34217,0.13117l0.3434,0.12779l0.34464,0.1242l0.34581,0.12082l0.34701,0.11722l0.3481,0.11385l0.34925,0.11025l0.35031,0.10687l0.35134,0.10327l0.35238,0.09945l0.35337,0.09607l0.35429,0.09247l0.35524,0.08865l0.35612,0.08527l0.35695,0.08145l0.35778,0.07785l0.35854,0.07425l0.35931,0.07042l0.36001,0.06682l0.3607,0.06322l0.36131,0.05962l0.36192,0.0558l0.36253,0.0522l0.36302,0.0486l0.36354,0.04477l0.36399,0.04117l0.36442,0.03757l0.3648,0.03375l0.36518,0.03037l0.36547,0.02655l0.36579,0.02317l0.36602,0.01935l0.36624,0.01597l0.36644,0.01215l0.36658,0.00878l0.36678,0.0054l0.36075,0.00158l0.36674,-0.00158l0.36665,-0.00517l0.3666,-0.00878l0.36629,-0.01237l0.36629,-0.01575l0.36584,-0.01935l0.36584,-0.02317l0.36539,-0.02655l0.36516,-0.03015l0.36471,-0.03398l0.36449,-0.03757l0.36404,-0.04117l0.36336,-0.04477l0.36313,-0.04837l0.36246,-0.0522l0.36201,-0.0558l0.36111,-0.0594l0.36089,-0.06322l0.35999,-0.06682l0.35931,-0.07042l0.35841,-0.07425l0.35796,-0.07785l0.35684,-0.08145l0.35616,-0.08505l0.35526,-0.08887l0.35436,-0.09225l0.35324,-0.09607l0.35256,-0.09945l0.35121,-0.10327l0.35054,-0.10665l0.34918,-0.11025l0.34806,-0.11385l0.34716,-0.11745l0.34581,-0.12059l0.34469,-0.12442l0.34356,-0.12757l0.34199,-0.13117l0.34109,-0.13454l0.33974,-0.1377l0.33276,-0.13882l0.33681,-0.14445l0.33569,-0.14782l0.33389,-0.15075l0.33254,-0.15434l0.33074,-0.15727l0.32939,-0.16087l0.32759,-0.1638l0.32601,-0.16717l0.32421,-0.17054l0.32241,-0.17369l0.32061,-0.17684l0.31904,-0.17999l0.31701,-0.18337l0.31521,-0.18652l0.31319,-0.18967l0.31116,-0.19304l0.30936,-0.19597l0.30734,-0.19912l0.30509,-0.20227l0.30329,-0.20542l0.30104,-0.20857l0.29901,-0.21149l0.29676,-0.21442l0.29451,-0.21757l0.29249,-0.22072l0.29024,-0.22342l0.28776,-0.22634l0.28574,-0.22927l0.28326,-0.23241l0.28124,-0.23489l0.27854,-0.23781l0.27651,-0.24074l0.27404,-0.24322l0.27156,-0.24614l0.26931,-0.24884l0.26684,-0.25131l0.26436,-0.25402l0.26324,-0.25784l0.14782,-0.14692l0.25806,-0.26054l0.25537,-0.26301l0.25311,-0.26526l0.25019,-0.26774l0.24772,-0.27021l0.24501,-0.27269l0.24209,-0.27472l0.23961,-0.27741l0.23669,-0.27966l0.23377,-0.28191l0.23107,-0.28439l0.22814,-0.28641l0.22522,-0.28889l0.22229,-0.29091l0.21936,-0.29339l0.21644,-0.29541l0.21329,-0.29766l0.21014,-0.29991l0.20722,-0.30194l0.20429,-0.30396l0.20092,-0.30599l0.19799,-0.30801l0.19462,-0.31026l0.19169,-0.31206l0.18854,-0.31386l0.18517,-0.31611l0.18202,-0.31769l0.17887,-0.31971l0.17572,-0.32129l0.17234,-0.32331l0.16897,-0.32489l0.16604,-0.32669l0.16267,-0.32826l0.15929,-0.33006l0.15614,-0.33164l0.15299,-0.33299l0.14962,-0.33479l0.14692,-0.33771l0.08167,-0.19147l0.14129,-0.33839l0.13792,-0.33951l0.13432,-0.34086l0.13117,-0.34221l0.12779,-0.34333l0.1242,-0.34469l0.12082,-0.34581l0.11722,-0.34694l0.11385,-0.34829l0.11025,-0.34918l0.10687,-0.35031l0.10304,-0.35121l0.09967,-0.35256l0.09607,-0.35324l0.09247,-0.35436l0.08865,-0.35526l0.08527,-0.35616l0.08145,-0.35684l0.07785,-0.35774l0.07425,-0.35864l0.07042,-0.35931l0.06682,-0.35999l0.06322,-0.36066l0.05962,-0.36133l0.0558,-0.36201l0.0522,-0.36246l0.04837,-0.36313l0.045,-0.36336l0.04117,-0.36404l0.03757,-0.36449l0.03375,-0.36471l0.03037,-0.36516l0.02655,-0.36561l0.02317,-0.36561l0.01935,-0.36606l0.01597,-0.36629l0.01215,-0.36651l0.00878,-0.36651l0.0054,-0.36674l0.00158,-0.36089v-0.00855z" data-paper-data="{&quot;isPathIcon&quot;:true}"></path></g></g></g></g><g class="watermark-group" style="opacity:0.040000010281801224"><path class="watermark-path" d="M129.52,370.3a11.88,11.88,0,0,1,2.58,5.58,12,12,0,0,1,.11,3,11.81,11.81,0,0,1-.64,2.93,12.34,12.34,0,0,1-1.41,2.72,11.65,11.65,0,0,1-2.13,2.32,12,12,0,0,1-2.64,1.69,13,13,0,0,1-2.91.9,12.47,12.47,0,0,1-3,.12,12.17,12.17,0,0,1-2.93-.64,11.8,11.8,0,0,1-2.72-1.38,12.19,12.19,0,0,1-4-4.79,11.85,11.85,0,0,1-.89-2.92,12.14,12.14,0,0,1-.13-3,11.54,11.54,0,0,1,.64-2.92,11.67,11.67,0,0,1,3.5-5,11.44,11.44,0,0,1,2.67-1.69,11.64,11.64,0,0,1,2.92-.91,10.71,10.71,0,0,1,3-.12,11.68,11.68,0,0,1,5.66,2,11.7,11.7,0,0,1,2.34,2.12m-1.4,8.76a13,13,0,0,1-1.22,2.32,9.68,9.68,0,0,1-1.81,2,7.44,7.44,0,0,1-2.38,1.37,6.17,6.17,0,0,1-5.11-.46,8.73,8.73,0,0,1-3.85-4.58,6.69,6.69,0,0,1-.34-2.66,6.09,6.09,0,0,1,.77-2.47,7.15,7.15,0,0,1,1.75-2.11,9.58,9.58,0,0,1,1.09-.81,8.23,8.23,0,0,1,1.12-.63,8.14,8.14,0,0,1,1.19-.46,12.71,12.71,0,0,1,1.32-.37l2,2.38a12.83,12.83,0,0,0-1.56.17,7.86,7.86,0,0,0-1.23.32,4.5,4.5,0,0,0-1,.49,6.41,6.41,0,0,0-.93.67,4.49,4.49,0,0,0-1.15,1.39,3.87,3.87,0,0,0-.45,1.58,4.12,4.12,0,0,0,.26,1.63,6.11,6.11,0,0,0,2.36,2.82,4.43,4.43,0,0,0,1.57.53,3.91,3.91,0,0,0,1.62-.17,4.71,4.71,0,0,0,1.57-.89,10.5,10.5,0,0,0,.83-.79,5.71,5.71,0,0,0,.65-.93,10.13,10.13,0,0,0,.54-1.14,12.24,12.24,0,0,0,.44-1.49l2,2.33m-14.46,4.55a8.86,8.86,0,0,0,2.78,2.22,9,9,0,0,0,3.29.94,9.15,9.15,0,0,0,3.39-.37,8.68,8.68,0,0,0,3.11-1.69,8.8,8.8,0,0,0,2.22-2.78,9.15,9.15,0,0,0,1-3.29,8.95,8.95,0,0,0-4.83-8.76,9,9,0,0,0-6.73-.57,9,9,0,0,0-5.33,4.47,8.94,8.94,0,0,0-.57,6.71,8.76,8.76,0,0,0,1.7,3.12"></path><path class="watermark-path" d="M147,349c-.48.12-1.09.31-1.82.57a24.37,24.37,0,0,0-2.4,1A28.35,28.35,0,0,0,140,352a20.72,20.72,0,0,0-2.71,1.94c-.7.59-1.28,1.11-1.74,1.57a15.07,15.07,0,0,0-1.1,1.22,4.09,4.09,0,0,0-.59.92,2.32,2.32,0,0,0-.22.64,1.16,1.16,0,0,0,0,.47,1.83,1.83,0,0,0,.18.29,1.15,1.15,0,0,0,1,.37,5.54,5.54,0,0,0,1.51-.38q.87-.35,1.95-.9l2.26-1.18q1.2-.65,2.49-1.29c.87-.44,1.73-.83,2.59-1.17a18.94,18.94,0,0,1,2.6-.81,9.27,9.27,0,0,1,2.46-.29,6.25,6.25,0,0,1,2.24.49,5.12,5.12,0,0,1,1.89,1.47,6.35,6.35,0,0,1,1.41,2.61,6,6,0,0,1,.09,2.6,8.3,8.3,0,0,1-.9,2.52,17.79,17.79,0,0,1-1.62,2.37,23.92,23.92,0,0,1-2,2.15c-.72.67-1.41,1.29-2.09,1.87a33.79,33.79,0,0,1-5.33,3.7,32.29,32.29,0,0,1-4.91,2.28l-3.61-4.3a21.38,21.38,0,0,0,5.39-1.87,27.2,27.2,0,0,0,5.4-3.56,21.59,21.59,0,0,0,2.38-2.27,8.67,8.67,0,0,0,1.18-1.7,2.32,2.32,0,0,0,.27-1.19,1.34,1.34,0,0,0-.28-.74,1.21,1.21,0,0,0-1-.42,4.32,4.32,0,0,0-1.55.34,15.77,15.77,0,0,0-2,.88c-.72.37-1.48.77-2.27,1.21l-2.45,1.3c-.85.45-1.7.85-2.56,1.21a22.37,22.37,0,0,1-2.54.86,10,10,0,0,1-2.43.32,5.76,5.76,0,0,1-2.2-.45,5,5,0,0,1-1.89-1.45,6.12,6.12,0,0,1-1.31-2.41,6,6,0,0,1-.1-2.41,8.28,8.28,0,0,1,.81-2.38,14.06,14.06,0,0,1,1.49-2.24,22.37,22.37,0,0,1,1.85-2.05q1-1,2-1.77c.7-.59,1.44-1.15,2.23-1.7s1.62-1.06,2.44-1.53,1.63-.91,2.43-1.3,1.58-.75,2.3-1L147,349"></path><path class="watermark-path" d="M186.76,337.57l-10.6-12.63,3.92,18.24-4.66,3.91-17.27-7,10.6,12.63-4.86,4.07-15.09-18,6.59-5.54,18.69,7.52-4.15-19.71,6.57-5.52,15.09,18-4.83,4.05"></path><path class="watermark-path" d="M208.84,313.24l-10,8.42,1.16,4.82L194.56,331l-5.68-25.89,5.42-4.55,24.51,10.09-5.42,4.55-4.55-2m-11.23,3.45,6.57-5.52-8.83-3.87,2.26,9.39"></path><path class="watermark-path" d="M227.49,281.38c-.48.12-1.09.31-1.82.57a24.37,24.37,0,0,0-2.4,1,26.11,26.11,0,0,0-2.7,1.47,20.72,20.72,0,0,0-2.71,1.94c-.7.59-1.28,1.11-1.74,1.57a13.39,13.39,0,0,0-1.1,1.22,4.29,4.29,0,0,0-.59.91,2.48,2.48,0,0,0-.22.65,1.16,1.16,0,0,0,0,.47,1.83,1.83,0,0,0,.18.29,1.15,1.15,0,0,0,1,.37,5.54,5.54,0,0,0,1.51-.38q.87-.34,2-.9l2.26-1.18q1.2-.64,2.49-1.29c.87-.44,1.73-.83,2.59-1.17a18.94,18.94,0,0,1,2.6-.81,9.27,9.27,0,0,1,2.46-.29,6.08,6.08,0,0,1,2.24.49,5.09,5.09,0,0,1,1.89,1.46,6.47,6.47,0,0,1,1.41,2.61,6.07,6.07,0,0,1,.09,2.61,8.3,8.3,0,0,1-.9,2.52,16.32,16.32,0,0,1-1.63,2.36,21.41,21.41,0,0,1-2,2.16c-.72.67-1.41,1.29-2.1,1.86a33.36,33.36,0,0,1-5.32,3.71,31.92,31.92,0,0,1-4.92,2.28l-3.6-4.3a21.38,21.38,0,0,0,5.39-1.87,27.2,27.2,0,0,0,5.4-3.56,21.59,21.59,0,0,0,2.38-2.27,8.67,8.67,0,0,0,1.18-1.7A2.32,2.32,0,0,0,231,293a1.34,1.34,0,0,0-.28-.74,1.21,1.21,0,0,0-1-.42,4.32,4.32,0,0,0-1.55.34,16.54,16.54,0,0,0-2,.88c-.71.37-1.47.77-2.26,1.21l-2.46,1.3c-.84.44-1.7.85-2.55,1.21a24.53,24.53,0,0,1-2.54.86A10,10,0,0,1,214,298a5.76,5.76,0,0,1-2.2-.45,5,5,0,0,1-1.89-1.45,6.12,6.12,0,0,1-1.31-2.41,5.78,5.78,0,0,1-.1-2.41,8,8,0,0,1,.81-2.38,14.61,14.61,0,0,1,1.49-2.25,22.26,22.26,0,0,1,1.85-2q1-1,2-1.77c.7-.59,1.44-1.15,2.23-1.7s1.62-1.06,2.44-1.53,1.63-.91,2.43-1.31,1.58-.74,2.3-1l3.5,4.16"></path><path class="watermark-path" d="M261.64,274.74l-6.29-7.5L243,277.61l6.3,7.5-4.86,4.07-15.09-18,4.85-4.08,5.49,6.55L252,263.3l-5.49-6.55,4.86-4.07,15.09,18-4.86,4.08"></path><path class="watermark-path" d="M272.18,265.9l-15.09-18,4.86-4.08,15.09,18-4.86,4.08"></path><path class="watermark-path" d="M299.65,242.85l-22.51-2.18L287.51,253l-4.85,4.08-15.1-18,5.28-4.43,22.56,2.22L285,224.5l4.83-4.06,15.09,18-5.26,4.42"></path><path class="watermark-path" d="M306.68,205.52a31.88,31.88,0,0,1,5.29-3.66,34.48,34.48,0,0,1,5.14-2.35l3.69,4.39a20.77,20.77,0,0,0-2.37.61,20.47,20.47,0,0,0-2.61,1,25.12,25.12,0,0,0-2.76,1.49,23.9,23.9,0,0,0-2.8,2,20.42,20.42,0,0,0-2.8,2.77,12.77,12.77,0,0,0-1.64,2.52,7,7,0,0,0-.68,2.24,6,6,0,0,0,.66,3.64,8.16,8.16,0,0,0,.94,1.38,9.12,9.12,0,0,0,1.08,1.07,6.39,6.39,0,0,0,1.47.91,6.73,6.73,0,0,0,1.88.48,6.54,6.54,0,0,0,2.28-.18,11.67,11.67,0,0,0,2.74-1.07,19.38,19.38,0,0,0,3.18-2.22c.57-.48,1.06-.92,1.46-1.31a14.57,14.57,0,0,0,1-1.13,11.46,11.46,0,0,0,.81-1.05l.74-1.09-1.82-2.17-5.45,4.57-3.31-3.94,10.31-8.65,7.71,9.19a29,29,0,0,1-1.67,2.43q-1,1.26-2.1,2.52c-.74.84-1.5,1.65-2.3,2.44s-1.58,1.5-2.33,2.14a31,31,0,0,1-3.59,2.61,22.55,22.55,0,0,1-3.64,1.83,15.64,15.64,0,0,1-3.63.89,10.72,10.72,0,0,1-3.49-.15,10.45,10.45,0,0,1-3.28-1.33,12.54,12.54,0,0,1-3-2.67,12,12,0,0,1-2.08-3.44,10.45,10.45,0,0,1-.71-3.5,11.14,11.14,0,0,1,.51-3.51,15.72,15.72,0,0,1,1.56-3.43,21.62,21.62,0,0,1,2.42-3.28,30.3,30.3,0,0,1,3.15-3"></path><path class="watermark-path" d="M336.91,211.59l-15.1-18,4.86-4.08,11.79,14,13.13-11,3.31,3.94-18,15.1"></path><path class="watermark-path" d="M374.54,164.71a12.28,12.28,0,0,1,2.59,4.81,10.44,10.44,0,0,1,0,5,14.62,14.62,0,0,1-2.33,5,25.55,25.55,0,0,1-4.56,4.85,26.07,26.07,0,0,1-5.6,3.67,14.79,14.79,0,0,1-5.38,1.43,10.43,10.43,0,0,1-4.94-.89,13.24,13.24,0,0,1-6.87-8.18,10.48,10.48,0,0,1,0-5,14.51,14.51,0,0,1,2.36-5,25.23,25.23,0,0,1,4.57-4.89,25,25,0,0,1,5.59-3.64,14.45,14.45,0,0,1,5.35-1.43,10.31,10.31,0,0,1,4.93.92,12.22,12.22,0,0,1,4.28,3.38m-4.91,4.11a8.36,8.36,0,0,0-2-1.72,5.5,5.5,0,0,0-2.65-.85,7.72,7.72,0,0,0-3.32.57,14.49,14.49,0,0,0-4,2.52,16.72,16.72,0,0,0-2.38,2.4,10.15,10.15,0,0,0-1.39,2.24,6.71,6.71,0,0,0-.56,2.1,5.69,5.69,0,0,0,.1,1.9,6.21,6.21,0,0,0,.61,1.69,9.85,9.85,0,0,0,1,1.44,10.48,10.48,0,0,0,1.26,1.23,6.67,6.67,0,0,0,1.57.92,6.1,6.1,0,0,0,1.85.41,6.8,6.8,0,0,0,2.15-.2,11.06,11.06,0,0,0,2.45-1,17.67,17.67,0,0,0,2.77-1.94,14.39,14.39,0,0,0,3.18-3.52,7.74,7.74,0,0,0,1.14-3.17,5.54,5.54,0,0,0-.37-2.74,8.52,8.52,0,0,0-1.36-2.3"></path><path class="watermark-path" d="M382.66,141.76A32.3,32.3,0,0,1,388,138.1a34.12,34.12,0,0,1,5.15-2.35l3.69,4.4a19.62,19.62,0,0,0-2.37.6,22.08,22.08,0,0,0-2.61,1,26,26,0,0,0-2.77,1.49,23.9,23.9,0,0,0-2.8,2,21,21,0,0,0-2.8,2.78,13.19,13.19,0,0,0-1.64,2.51,7.29,7.29,0,0,0-.68,2.24,6.36,6.36,0,0,0,.06,2,5.8,5.8,0,0,0,.61,1.68,8.12,8.12,0,0,0,.93,1.38,9.16,9.16,0,0,0,1.08,1.08,6.56,6.56,0,0,0,1.48.9,6,6,0,0,0,1.87.48,6.76,6.76,0,0,0,2.28-.17,12,12,0,0,0,2.74-1.08,18.57,18.57,0,0,0,3.18-2.22c.58-.48,1.06-.92,1.46-1.31s.75-.77,1.05-1.12.57-.72.81-1.06l.73-1.09-1.82-2.17-5.45,4.57-3.3-3.94,10.3-8.65,7.71,9.19a29,29,0,0,1-1.67,2.43q-1,1.26-2.1,2.52c-.73.84-1.5,1.66-2.3,2.44s-1.57,1.5-2.33,2.14a31,31,0,0,1-3.59,2.61,22.15,22.15,0,0,1-3.64,1.83,15.56,15.56,0,0,1-3.62.89,11,11,0,0,1-3.49-.14,10.84,10.84,0,0,1-3.28-1.33,12.82,12.82,0,0,1-3-2.68,12.12,12.12,0,0,1-2.08-3.43A10.71,10.71,0,0,1,375,155a11.18,11.18,0,0,1,.51-3.51,15.51,15.51,0,0,1,1.57-3.43,21.44,21.44,0,0,1,2.42-3.28,30.19,30.19,0,0,1,3.14-3"></path><path class="watermark-path" d="M428.63,119.31a12.26,12.26,0,0,1,2.59,4.82,10.44,10.44,0,0,1,0,5,14.53,14.53,0,0,1-2.34,5,25.29,25.29,0,0,1-4.56,4.86,26,26,0,0,1-5.59,3.67,14.84,14.84,0,0,1-5.38,1.43,10.61,10.61,0,0,1-4.95-.89,12.15,12.15,0,0,1-4.3-3.37,12,12,0,0,1-2.56-4.81,10.48,10.48,0,0,1,0-5,14.39,14.39,0,0,1,2.35-5,27.89,27.89,0,0,1,10.16-8.53,14.49,14.49,0,0,1,5.36-1.43,10.27,10.27,0,0,1,4.92.92,12.21,12.21,0,0,1,4.28,3.37m-4.91,4.12a8.17,8.17,0,0,0-2-1.72,5.58,5.58,0,0,0-2.65-.86,7.86,7.86,0,0,0-3.31.58,14.49,14.49,0,0,0-4,2.52,16.21,16.21,0,0,0-2.38,2.4,9.85,9.85,0,0,0-1.4,2.24,7,7,0,0,0-.56,2.1,6,6,0,0,0,.1,1.9,6.23,6.23,0,0,0,.62,1.69,8.49,8.49,0,0,0,1,1.44,9.18,9.18,0,0,0,1.26,1.23,6.67,6.67,0,0,0,1.57.92,6,6,0,0,0,1.84.41,6.86,6.86,0,0,0,2.16-.2,11.26,11.26,0,0,0,2.45-1,17.62,17.62,0,0,0,2.76-1.94,14.67,14.67,0,0,0,3.19-3.52,7.71,7.71,0,0,0,1.13-3.17,5.53,5.53,0,0,0-.36-2.74,8.55,8.55,0,0,0-1.37-2.3"></path></g></svg>