<svg xmlns:mydata="http://www.w3.org/2000/svg" mydata:contrastcolor="ffffff" mydata:template="Default" mydata:presentation="2.5" mydata:layouttype="undefined" mydata:specialfontid="undefined" mydata:id1="004" mydata:id2="534" mydata:companyname="kitobbek" mydata:companytagline="" version="1.1" xmlns="http://www.w3.org/2000/svg" xmlns:xlink="http://www.w3.org/1999/xlink" viewBox="0 50 550 370" style="height: 201px;"><g fill="#101820" fill-rule="nonzero" stroke="none" stroke-width="1" stroke-linecap="butt" stroke-linejoin="miter" stroke-miterlimit="10" stroke-dasharray="" stroke-dashoffset="0" font-family="none" font-weight="none" font-size="none" text-anchor="none" style="mix-blend-mode: normal"><g data-paper-data="{&quot;isGlobalGroup&quot;:true,&quot;bounds&quot;:{&quot;x&quot;:65,&quot;y&quot;:198.4938181131,&quot;width&quot;:420,&quot;height&quot;:73.01236377379999}}"><g data-paper-data="{&quot;isPrimaryText&quot;:true}" id="element-id-24691"><path d="M168.40165,250.19725h-5.08969v-30.8613h4.84732c1.85814,0 2.34287,-0.88868 2.34287,-2.34287v-6.54389c0,-1.4542 -0.48473,-2.34287 -2.34287,-2.34287h-22.45927c-1.85814,0 -2.34287,0.88868 -2.34287,2.34287v6.54389c0,1.4542 0.48473,2.34287 2.34287,2.34287h4.92811v30.8613h-5.08969c-1.85814,0 -2.34287,0.88868 -2.34287,2.34287v6.38231c0,1.4542 0.48473,2.34287 2.34287,2.34287h22.86321c1.85814,0 2.34287,-0.88868 2.34287,-2.34287v-6.38231c0,-1.4542 -0.48473,-2.34287 -2.34287,-2.34287z" data-paper-data="{&quot;glyphName&quot;:&quot;I&quot;,&quot;glyphIndex&quot;:1,&quot;word&quot;:1}" id="element-id-15072"></path><path d="M217.11726,208.10631h-37.48598c-1.85814,0 -2.34287,0.88868 -2.34287,2.34287v6.70547c0,1.4542 0.48473,2.34287 2.34287,2.34287h12.44147v39.42491c0,1.85814 0.88868,2.34287 2.34287,2.34287h7.99809c1.4542,0 2.34287,-0.48473 2.34287,-2.34287v-39.42491h12.36068c1.85814,0 2.34287,-0.88868 2.34287,-2.34287v-6.70547c0,-1.4542 -0.48473,-2.34287 -2.34287,-2.34287z" data-paper-data="{&quot;glyphName&quot;:&quot;T&quot;,&quot;glyphIndex&quot;:2,&quot;word&quot;:1}" id="element-id-76661"></path><path d="M269.30679,225.15274c0,-12.76462 -12.11831,-18.25826 -21.73217,-18.25826c-9.61386,0 -21.5706,5.49363 -21.5706,18.25826v19.06614c0,12.76462 11.95673,18.25826 21.5706,18.25826c9.61386,0 21.73217,-5.49363 21.73217,-18.25826zM256.62296,243.08784c0,5.17048 -3.71628,8.15966 -9.04834,8.15966c-5.25127,0 -8.96755,-2.98918 -8.96755,-8.15966v-16.80406c0,-5.17048 3.71628,-8.15966 8.96755,-8.15966c5.33206,0 9.04834,2.98918 9.04834,8.15966z" data-paper-data="{&quot;glyphName&quot;:&quot;O&quot;,&quot;glyphIndex&quot;:3,&quot;word&quot;:1}" id="element-id-83429"></path><path d="M317.53767,233.71635c0.7271,-0.32315 5.89758,-2.90839 5.89758,-11.06806c0,-7.59414 -5.65521,-14.62276 -18.82378,-14.62276h-22.62085c-1.85814,0 -2.34287,0.88868 -2.34287,2.34287v48.55404c0,1.4542 0.48473,2.34287 2.34287,2.34287h23.75189c11.22964,0 19.22772,-5.25127 19.22772,-15.51144c0,-8.72518 -6.78625,-11.79516 -7.43256,-12.03752zM305.90409,249.79331h-13.57251v-30.37657h12.27989c4.20101,0 6.70547,0.88868 6.70547,4.52417c0,3.15076 -2.01972,4.84732 -6.70547,4.84732v0h-1.05025c-1.85814,0 -2.34287,0.88868 -2.34287,2.34287v6.13994c0,1.4542 0.48473,2.34287 2.34287,2.34287h1.85814c3.87786,0 6.70547,1.13104 6.70547,4.92811c0,3.63549 -2.26208,5.25127 -6.22073,5.25127z" data-paper-data="{&quot;glyphName&quot;:&quot;B&quot;,&quot;glyphIndex&quot;:4,&quot;word&quot;:1}" id="element-id-38954"></path><path d="M373.03954,233.71635c0.7271,-0.32315 5.89758,-2.90839 5.89758,-11.06806c0,-7.59414 -5.65521,-14.62276 -18.82378,-14.62276h-22.62085c-1.85814,0 -2.34287,0.88868 -2.34287,2.34287v48.55404c0,1.4542 0.48473,2.34287 2.34287,2.34287h23.75189c11.22964,0 19.22772,-5.25127 19.22772,-15.51144c0,-8.72518 -6.78625,-11.79516 -7.43256,-12.03752zM361.40596,249.79331h-13.57251v-30.37657h12.27989c4.20101,0 6.70547,0.88868 6.70547,4.52417c0,3.15076 -2.01972,4.84732 -6.70547,4.84732v0h-1.05025c-1.85814,0 -2.34287,0.88868 -2.34287,2.34287v6.13994c0,1.4542 0.48473,2.34287 2.34287,2.34287h1.85814c3.87786,0 6.70547,1.13104 6.70547,4.92811c0,3.63549 -2.26208,5.25127 -6.22073,5.25127z" data-paper-data="{&quot;glyphName&quot;:&quot;B&quot;,&quot;glyphIndex&quot;:5,&quot;word&quot;:1}" id="element-id-44965"></path><path d="M426.92563,250.03567h-35.70863c-1.4542,0 -2.34287,0.48473 -2.34287,2.34287v6.62468c0,1.85814 0.88868,2.34287 2.34287,2.34287h35.70863c1.4542,0 2.34287,-0.48473 2.34287,-2.34287v-6.62468c0,-1.85814 -0.88868,-2.34287 -2.34287,-2.34287zM422.88619,229.0306h-27.62975c-1.4542,0 -2.34287,0.48473 -2.34287,2.34287v6.62468c0,1.85814 0.88868,2.34287 2.34287,2.34287h27.62975c1.4542,0 2.34287,-0.48473 2.34287,-2.34287v-6.62468c0,-1.85814 -0.88868,-2.34287 -2.34287,-2.34287zM426.92563,208.1871h-35.70863c-1.4542,0 -2.34287,0.48473 -2.34287,2.34287v6.62468c0,1.85814 0.88868,2.34287 2.34287,2.34287h35.70863c1.4542,0 2.34287,-0.48473 2.34287,-2.34287v-6.62468c0,-1.85814 -0.88868,-2.34287 -2.34287,-2.34287z" data-paper-data="{&quot;glyphName&quot;:&quot;ξ&quot;,&quot;glyphIndex&quot;:6,&quot;word&quot;:1}" id="element-id-78946"></path><path d="M483.72012,208.10631h-10.90648c-1.85814,0 -2.42366,0.16158 -4.03944,1.93893l-16.72327,18.41983v-18.01589c0,-1.85814 -0.88868,-2.34287 -2.26208,-2.34287h-7.99809c-1.53499,0 -2.34287,0.48473 -2.34287,2.34287v48.47325c0,1.85814 0.80789,2.34287 2.34287,2.34287h7.99809c1.37341,0 2.26208,-0.48473 2.26208,-2.34287v-14.3804l5.0089,-5.25127c4.36259,7.27099 11.55279,19.3893 11.55279,19.3893c1.05025,1.69656 2.10051,2.58524 4.03944,2.58524h9.85623c1.53499,0 1.85814,-1.53499 1.21183,-2.58524l-17.36958,-28.59922l18.17747,-19.71245c0.7271,-0.7271 0.7271,-2.26208 -0.80789,-2.26208z" data-paper-data="{&quot;glyphName&quot;:&quot;K&quot;,&quot;glyphIndex&quot;:7,&quot;lastGlyphOfWord&quot;:true,&quot;word&quot;:1}" id="element-id-51179"></path><g data-paper-data="{&quot;fillRule&quot;:&quot;nonzero&quot;,&quot;fillRuleOriginal&quot;:&quot;nonzero&quot;,&quot;isIcon&quot;:true,&quot;iconStyle&quot;:&quot;icon-in-text&quot;,&quot;selectedEffects&quot;:{&quot;container&quot;:&quot;circle_simple_outline1&quot;,&quot;transformation&quot;:&quot;rotate0;translate50&quot;,&quot;pattern&quot;:&quot;&quot;},&quot;bounds&quot;:{&quot;x&quot;:65,&quot;y&quot;:198.4938181131,&quot;width&quot;:73.01233821947267,&quot;height&quot;:73.01236377379999},&quot;widthRatioIconToContainer&quot;:0.5955844630042391,&quot;heightRatioIconToContainer&quot;:0.7280820914378524,&quot;relativeBoundsIconToContainer&quot;:{&quot;top&quot;:-0.0043032277597806375,&quot;left&quot;:-4.876182348782032e-7},&quot;iconType&quot;:&quot;initial&quot;,&quot;initialText&quot;:&quot;K&quot;,&quot;rawInitialId&quot;:419,&quot;blockLetter&quot;:&quot;O&quot;,&quot;monogramSpecial&quot;:&quot;volume&quot;,&quot;line&quot;:1,&quot;iconInPrimaryText&quot;:true,&quot;suitableAsStandaloneIcon&quot;:true}" id="element-id-84240"><path d="M86.56415,213.4701l-5.8427,-2.68189l5.8427,-2.68189l5.8427,2.68189zM116.35234,213.4701l-5.8427,-2.68189l5.8427,-2.68189l5.8427,2.68189zM79.76363,258.29607v-46.45426l6.13005,2.77768v13.21791l0.38313,0.67047l7.85412,3.54393l0.86204,-0.19156l14.07995,-20.30578l6.32161,2.96924l-14.46308,19.82687v7.75834l13.50526,18.29436l-5.07644,-2.29877l-15.03777,-20.59312l-7.47099,-3.44815l-0.95782,0.67047v26.34004zM87.23462,226.7838v-12.16431l6.13005,-2.77768v12.16431zM116.63969,261.26531l-14.46308,-19.92265v-6.32161l14.65464,-20.30578l6.41739,-2.87346v5.65114l-12.35588,16.85763v0.86204l12.35588,16.85763v6.22583zM97.00438,226.49645l-2.87346,4.11862l-5.93848,-2.77768l5.8427,-2.68189zM93.36467,238.56498v19.73109l-6.13005,2.77768v-25.28644zM75.69242,209.18622c3.36824,-3.36824 7.23616,-5.97603 11.60376,-7.82337c4.52209,-1.91269 9.25875,-2.86904 14.20998,-2.86904c4.95121,0 9.68788,0.95635 14.20998,2.86904c4.36767,1.84733 8.23557,4.45512 11.60369,7.82337c3.36828,3.36826 5.9761,7.23618 7.82345,11.60377c1.9127,4.52209 2.86906,9.25875 2.86906,14.20998c0,4.95123 -0.95635,9.6879 -2.86906,14.21001c-1.84736,4.36751 -4.45517,8.23541 -7.82345,11.60369c-3.36812,3.36828 -7.23602,5.9761 -11.60369,7.82345c-4.52195,1.9127 -9.25861,2.86906 -14.20998,2.86906c-4.95114,0 -9.6878,-0.95635 -14.20998,-2.86906c-4.36753,-1.84736 -8.23545,-4.45517 -11.60376,-7.82345c-3.36825,-3.36828 -5.97604,-7.23618 -7.82338,-11.60369c-1.91269,-4.5221 -2.86904,-9.25877 -2.86904,-14.21001c0,-4.95123 0.95635,-9.68789 2.86904,-14.20998c1.84734,-4.36759 4.45513,-8.23552 7.82338,-11.60377zM76.36502,260.14103c3.28079,3.28078 7.04803,5.82079 11.30171,7.62004c4.40367,1.86255 9.01682,2.79382 13.83943,2.79382c4.82257,0 9.43573,-0.93127 13.83948,-2.79382c4.25359,-1.79925 8.02085,-4.33927 11.30178,-7.62004c3.28078,-3.28078 5.82071,-7.04796 7.61981,-11.30155c1.86255,-4.40375 2.79382,-9.01692 2.79382,-13.8395c0,-4.82263 -0.93127,-9.43579 -2.79382,-13.83946c-1.79909,-4.25366 -4.33903,-8.02089 -7.61981,-11.30169c-3.28078,-3.28079 -7.04804,-5.82076 -11.30178,-7.61993c-4.40375,-1.86258 -9.01691,-2.79387 -13.83948,-2.79387c-4.82263,0 -9.43578,0.93129 -13.83943,2.79387c-4.2537,1.79917 -8.02093,4.33915 -11.30171,7.61993c-3.2808,3.28079 -5.82076,7.04802 -7.61991,11.30169c-1.86259,4.40367 -2.79389,9.01682 -2.79389,13.83946c0,4.82259 0.9313,9.43576 2.79389,13.8395c1.79914,4.25359 4.33911,8.02077 7.61991,11.30155z" data-paper-data="{&quot;isPathIcon&quot;:true}" id="element-id-43921"></path></g></g></g></g><g class="watermark-group" style="opacity:0.040000010281801224"><path class="watermark-path" d="M129.52,370.3a11.88,11.88,0,0,1,2.58,5.58,12,12,0,0,1,.11,3,11.81,11.81,0,0,1-.64,2.93,12.34,12.34,0,0,1-1.41,2.72,11.65,11.65,0,0,1-2.13,2.32,12,12,0,0,1-2.64,1.69,13,13,0,0,1-2.91.9,12.47,12.47,0,0,1-3,.12,12.17,12.17,0,0,1-2.93-.64,11.8,11.8,0,0,1-2.72-1.38,12.19,12.19,0,0,1-4-4.79,11.85,11.85,0,0,1-.89-2.92,12.14,12.14,0,0,1-.13-3,11.54,11.54,0,0,1,.64-2.92,11.67,11.67,0,0,1,3.5-5,11.44,11.44,0,0,1,2.67-1.69,11.64,11.64,0,0,1,2.92-.91,10.71,10.71,0,0,1,3-.12,11.68,11.68,0,0,1,5.66,2,11.7,11.7,0,0,1,2.34,2.12m-1.4,8.76a13,13,0,0,1-1.22,2.32,9.68,9.68,0,0,1-1.81,2,7.44,7.44,0,0,1-2.38,1.37,6.17,6.17,0,0,1-5.11-.46,8.73,8.73,0,0,1-3.85-4.58,6.69,6.69,0,0,1-.34-2.66,6.09,6.09,0,0,1,.77-2.47,7.15,7.15,0,0,1,1.75-2.11,9.58,9.58,0,0,1,1.09-.81,8.23,8.23,0,0,1,1.12-.63,8.14,8.14,0,0,1,1.19-.46,12.71,12.71,0,0,1,1.32-.37l2,2.38a12.83,12.83,0,0,0-1.56.17,7.86,7.86,0,0,0-1.23.32,4.5,4.5,0,0,0-1,.49,6.41,6.41,0,0,0-.93.67,4.49,4.49,0,0,0-1.15,1.39,3.87,3.87,0,0,0-.45,1.58,4.12,4.12,0,0,0,.26,1.63,6.11,6.11,0,0,0,2.36,2.82,4.43,4.43,0,0,0,1.57.53,3.91,3.91,0,0,0,1.62-.17,4.71,4.71,0,0,0,1.57-.89,10.5,10.5,0,0,0,.83-.79,5.71,5.71,0,0,0,.65-.93,10.13,10.13,0,0,0,.54-1.14,12.24,12.24,0,0,0,.44-1.49l2,2.33m-14.46,4.55a8.86,8.86,0,0,0,2.78,2.22,9,9,0,0,0,3.29.94,9.15,9.15,0,0,0,3.39-.37,8.68,8.68,0,0,0,3.11-1.69,8.8,8.8,0,0,0,2.22-2.78,9.15,9.15,0,0,0,1-3.29,8.95,8.95,0,0,0-4.83-8.76,9,9,0,0,0-6.73-.57,9,9,0,0,0-5.33,4.47,8.94,8.94,0,0,0-.57,6.71,8.76,8.76,0,0,0,1.7,3.12"></path><path class="watermark-path" d="M147,349c-.48.12-1.09.31-1.82.57a24.37,24.37,0,0,0-2.4,1A28.35,28.35,0,0,0,140,352a20.72,20.72,0,0,0-2.71,1.94c-.7.59-1.28,1.11-1.74,1.57a15.07,15.07,0,0,0-1.1,1.22,4.09,4.09,0,0,0-.59.92,2.32,2.32,0,0,0-.22.64,1.16,1.16,0,0,0,0,.47,1.83,1.83,0,0,0,.18.29,1.15,1.15,0,0,0,1,.37,5.54,5.54,0,0,0,1.51-.38q.87-.35,1.95-.9l2.26-1.18q1.2-.65,2.49-1.29c.87-.44,1.73-.83,2.59-1.17a18.94,18.94,0,0,1,2.6-.81,9.27,9.27,0,0,1,2.46-.29,6.25,6.25,0,0,1,2.24.49,5.12,5.12,0,0,1,1.89,1.47,6.35,6.35,0,0,1,1.41,2.61,6,6,0,0,1,.09,2.6,8.3,8.3,0,0,1-.9,2.52,17.79,17.79,0,0,1-1.62,2.37,23.92,23.92,0,0,1-2,2.15c-.72.67-1.41,1.29-2.09,1.87a33.79,33.79,0,0,1-5.33,3.7,32.29,32.29,0,0,1-4.91,2.28l-3.61-4.3a21.38,21.38,0,0,0,5.39-1.87,27.2,27.2,0,0,0,5.4-3.56,21.59,21.59,0,0,0,2.38-2.27,8.67,8.67,0,0,0,1.18-1.7,2.32,2.32,0,0,0,.27-1.19,1.34,1.34,0,0,0-.28-.74,1.21,1.21,0,0,0-1-.42,4.32,4.32,0,0,0-1.55.34,15.77,15.77,0,0,0-2,.88c-.72.37-1.48.77-2.27,1.21l-2.45,1.3c-.85.45-1.7.85-2.56,1.21a22.37,22.37,0,0,1-2.54.86,10,10,0,0,1-2.43.32,5.76,5.76,0,0,1-2.2-.45,5,5,0,0,1-1.89-1.45,6.12,6.12,0,0,1-1.31-2.41,6,6,0,0,1-.1-2.41,8.28,8.28,0,0,1,.81-2.38,14.06,14.06,0,0,1,1.49-2.24,22.37,22.37,0,0,1,1.85-2.05q1-1,2-1.77c.7-.59,1.44-1.15,2.23-1.7s1.62-1.06,2.44-1.53,1.63-.91,2.43-1.3,1.58-.75,2.3-1L147,349"></path><path class="watermark-path" d="M186.76,337.57l-10.6-12.63,3.92,18.24-4.66,3.91-17.27-7,10.6,12.63-4.86,4.07-15.09-18,6.59-5.54,18.69,7.52-4.15-19.71,6.57-5.52,15.09,18-4.83,4.05"></path><path class="watermark-path" d="M208.84,313.24l-10,8.42,1.16,4.82L194.56,331l-5.68-25.89,5.42-4.55,24.51,10.09-5.42,4.55-4.55-2m-11.23,3.45,6.57-5.52-8.83-3.87,2.26,9.39"></path><path class="watermark-path" d="M227.49,281.38c-.48.12-1.09.31-1.82.57a24.37,24.37,0,0,0-2.4,1,26.11,26.11,0,0,0-2.7,1.47,20.72,20.72,0,0,0-2.71,1.94c-.7.59-1.28,1.11-1.74,1.57a13.39,13.39,0,0,0-1.1,1.22,4.29,4.29,0,0,0-.59.91,2.48,2.48,0,0,0-.22.65,1.16,1.16,0,0,0,0,.47,1.83,1.83,0,0,0,.18.29,1.15,1.15,0,0,0,1,.37,5.54,5.54,0,0,0,1.51-.38q.87-.34,2-.9l2.26-1.18q1.2-.64,2.49-1.29c.87-.44,1.73-.83,2.59-1.17a18.94,18.94,0,0,1,2.6-.81,9.27,9.27,0,0,1,2.46-.29,6.08,6.08,0,0,1,2.24.49,5.09,5.09,0,0,1,1.89,1.46,6.47,6.47,0,0,1,1.41,2.61,6.07,6.07,0,0,1,.09,2.61,8.3,8.3,0,0,1-.9,2.52,16.32,16.32,0,0,1-1.63,2.36,21.41,21.41,0,0,1-2,2.16c-.72.67-1.41,1.29-2.1,1.86a33.36,33.36,0,0,1-5.32,3.71,31.92,31.92,0,0,1-4.92,2.28l-3.6-4.3a21.38,21.38,0,0,0,5.39-1.87,27.2,27.2,0,0,0,5.4-3.56,21.59,21.59,0,0,0,2.38-2.27,8.67,8.67,0,0,0,1.18-1.7A2.32,2.32,0,0,0,231,293a1.34,1.34,0,0,0-.28-.74,1.21,1.21,0,0,0-1-.42,4.32,4.32,0,0,0-1.55.34,16.54,16.54,0,0,0-2,.88c-.71.37-1.47.77-2.26,1.21l-2.46,1.3c-.84.44-1.7.85-2.55,1.21a24.53,24.53,0,0,1-2.54.86A10,10,0,0,1,214,298a5.76,5.76,0,0,1-2.2-.45,5,5,0,0,1-1.89-1.45,6.12,6.12,0,0,1-1.31-2.41,5.78,5.78,0,0,1-.1-2.41,8,8,0,0,1,.81-2.38,14.61,14.61,0,0,1,1.49-2.25,22.26,22.26,0,0,1,1.85-2q1-1,2-1.77c.7-.59,1.44-1.15,2.23-1.7s1.62-1.06,2.44-1.53,1.63-.91,2.43-1.31,1.58-.74,2.3-1l3.5,4.16"></path><path class="watermark-path" d="M261.64,274.74l-6.29-7.5L243,277.61l6.3,7.5-4.86,4.07-15.09-18,4.85-4.08,5.49,6.55L252,263.3l-5.49-6.55,4.86-4.07,15.09,18-4.86,4.08"></path><path class="watermark-path" d="M272.18,265.9l-15.09-18,4.86-4.08,15.09,18-4.86,4.08"></path><path class="watermark-path" d="M299.65,242.85l-22.51-2.18L287.51,253l-4.85,4.08-15.1-18,5.28-4.43,22.56,2.22L285,224.5l4.83-4.06,15.09,18-5.26,4.42"></path><path class="watermark-path" d="M306.68,205.52a31.88,31.88,0,0,1,5.29-3.66,34.48,34.48,0,0,1,5.14-2.35l3.69,4.39a20.77,20.77,0,0,0-2.37.61,20.47,20.47,0,0,0-2.61,1,25.12,25.12,0,0,0-2.76,1.49,23.9,23.9,0,0,0-2.8,2,20.42,20.42,0,0,0-2.8,2.77,12.77,12.77,0,0,0-1.64,2.52,7,7,0,0,0-.68,2.24,6,6,0,0,0,.66,3.64,8.16,8.16,0,0,0,.94,1.38,9.12,9.12,0,0,0,1.08,1.07,6.39,6.39,0,0,0,1.47.91,6.73,6.73,0,0,0,1.88.48,6.54,6.54,0,0,0,2.28-.18,11.67,11.67,0,0,0,2.74-1.07,19.38,19.38,0,0,0,3.18-2.22c.57-.48,1.06-.92,1.46-1.31a14.57,14.57,0,0,0,1-1.13,11.46,11.46,0,0,0,.81-1.05l.74-1.09-1.82-2.17-5.45,4.57-3.31-3.94,10.31-8.65,7.71,9.19a29,29,0,0,1-1.67,2.43q-1,1.26-2.1,2.52c-.74.84-1.5,1.65-2.3,2.44s-1.58,1.5-2.33,2.14a31,31,0,0,1-3.59,2.61,22.55,22.55,0,0,1-3.64,1.83,15.64,15.64,0,0,1-3.63.89,10.72,10.72,0,0,1-3.49-.15,10.45,10.45,0,0,1-3.28-1.33,12.54,12.54,0,0,1-3-2.67,12,12,0,0,1-2.08-3.44,10.45,10.45,0,0,1-.71-3.5,11.14,11.14,0,0,1,.51-3.51,15.72,15.72,0,0,1,1.56-3.43,21.62,21.62,0,0,1,2.42-3.28,30.3,30.3,0,0,1,3.15-3"></path><path class="watermark-path" d="M336.91,211.59l-15.1-18,4.86-4.08,11.79,14,13.13-11,3.31,3.94-18,15.1"></path><path class="watermark-path" d="M374.54,164.71a12.28,12.28,0,0,1,2.59,4.81,10.44,10.44,0,0,1,0,5,14.62,14.62,0,0,1-2.33,5,25.55,25.55,0,0,1-4.56,4.85,26.07,26.07,0,0,1-5.6,3.67,14.79,14.79,0,0,1-5.38,1.43,10.43,10.43,0,0,1-4.94-.89,13.24,13.24,0,0,1-6.87-8.18,10.48,10.48,0,0,1,0-5,14.51,14.51,0,0,1,2.36-5,25.23,25.23,0,0,1,4.57-4.89,25,25,0,0,1,5.59-3.64,14.45,14.45,0,0,1,5.35-1.43,10.31,10.31,0,0,1,4.93.92,12.22,12.22,0,0,1,4.28,3.38m-4.91,4.11a8.36,8.36,0,0,0-2-1.72,5.5,5.5,0,0,0-2.65-.85,7.72,7.72,0,0,0-3.32.57,14.49,14.49,0,0,0-4,2.52,16.72,16.72,0,0,0-2.38,2.4,10.15,10.15,0,0,0-1.39,2.24,6.71,6.71,0,0,0-.56,2.1,5.69,5.69,0,0,0,.1,1.9,6.21,6.21,0,0,0,.61,1.69,9.85,9.85,0,0,0,1,1.44,10.48,10.48,0,0,0,1.26,1.23,6.67,6.67,0,0,0,1.57.92,6.1,6.1,0,0,0,1.85.41,6.8,6.8,0,0,0,2.15-.2,11.06,11.06,0,0,0,2.45-1,17.67,17.67,0,0,0,2.77-1.94,14.39,14.39,0,0,0,3.18-3.52,7.74,7.74,0,0,0,1.14-3.17,5.54,5.54,0,0,0-.37-2.74,8.52,8.52,0,0,0-1.36-2.3"></path><path class="watermark-path" d="M382.66,141.76A32.3,32.3,0,0,1,388,138.1a34.12,34.12,0,0,1,5.15-2.35l3.69,4.4a19.62,19.62,0,0,0-2.37.6,22.08,22.08,0,0,0-2.61,1,26,26,0,0,0-2.77,1.49,23.9,23.9,0,0,0-2.8,2,21,21,0,0,0-2.8,2.78,13.19,13.19,0,0,0-1.64,2.51,7.29,7.29,0,0,0-.68,2.24,6.36,6.36,0,0,0,.06,2,5.8,5.8,0,0,0,.61,1.68,8.12,8.12,0,0,0,.93,1.38,9.16,9.16,0,0,0,1.08,1.08,6.56,6.56,0,0,0,1.48.9,6,6,0,0,0,1.87.48,6.76,6.76,0,0,0,2.28-.17,12,12,0,0,0,2.74-1.08,18.57,18.57,0,0,0,3.18-2.22c.58-.48,1.06-.92,1.46-1.31s.75-.77,1.05-1.12.57-.72.81-1.06l.73-1.09-1.82-2.17-5.45,4.57-3.3-3.94,10.3-8.65,7.71,9.19a29,29,0,0,1-1.67,2.43q-1,1.26-2.1,2.52c-.73.84-1.5,1.66-2.3,2.44s-1.57,1.5-2.33,2.14a31,31,0,0,1-3.59,2.61,22.15,22.15,0,0,1-3.64,1.83,15.56,15.56,0,0,1-3.62.89,11,11,0,0,1-3.49-.14,10.84,10.84,0,0,1-3.28-1.33,12.82,12.82,0,0,1-3-2.68,12.12,12.12,0,0,1-2.08-3.43A10.71,10.71,0,0,1,375,155a11.18,11.18,0,0,1,.51-3.51,15.51,15.51,0,0,1,1.57-3.43,21.44,21.44,0,0,1,2.42-3.28,30.19,30.19,0,0,1,3.14-3"></path><path class="watermark-path" d="M428.63,119.31a12.26,12.26,0,0,1,2.59,4.82,10.44,10.44,0,0,1,0,5,14.53,14.53,0,0,1-2.34,5,25.29,25.29,0,0,1-4.56,4.86,26,26,0,0,1-5.59,3.67,14.84,14.84,0,0,1-5.38,1.43,10.61,10.61,0,0,1-4.95-.89,12.15,12.15,0,0,1-4.3-3.37,12,12,0,0,1-2.56-4.81,10.48,10.48,0,0,1,0-5,14.39,14.39,0,0,1,2.35-5,27.89,27.89,0,0,1,10.16-8.53,14.49,14.49,0,0,1,5.36-1.43,10.27,10.27,0,0,1,4.92.92,12.21,12.21,0,0,1,4.28,3.37m-4.91,4.12a8.17,8.17,0,0,0-2-1.72,5.58,5.58,0,0,0-2.65-.86,7.86,7.86,0,0,0-3.31.58,14.49,14.49,0,0,0-4,2.52,16.21,16.21,0,0,0-2.38,2.4,9.85,9.85,0,0,0-1.4,2.24,7,7,0,0,0-.56,2.1,6,6,0,0,0,.1,1.9,6.23,6.23,0,0,0,.62,1.69,8.49,8.49,0,0,0,1,1.44,9.18,9.18,0,0,0,1.26,1.23,6.67,6.67,0,0,0,1.57.92,6,6,0,0,0,1.84.41,6.86,6.86,0,0,0,2.16-.2,11.26,11.26,0,0,0,2.45-1,17.62,17.62,0,0,0,2.76-1.94,14.67,14.67,0,0,0,3.19-3.52,7.71,7.71,0,0,0,1.13-3.17,5.53,5.53,0,0,0-.36-2.74,8.55,8.55,0,0,0-1.37-2.3"></path></g><rect data-element-id="element-id-24691" stroke-width="2" fill="transparent" class="invisible-element-box grouping-element" x="65" y="198" width="420" height="73" data-element-name="isPrimaryText"></rect><rect data-element-id="element-id-84240" stroke-width="2" fill="transparent" class="invisible-element-box grouping-element" x="65" y="198" width="73" height="73" data-element-name="isIcon"></rect><rect data-element-id="element-id-43921" stroke-width="2" fill="transparent" class="invisible-element-box individual-element" x="65" y="198" width="73" height="73"></rect><rect data-element-id="element-id-51179" stroke-width="2" fill="transparent" class="invisible-element-box individual-element" x="439" y="208" width="46" height="53"></rect><rect data-element-id="element-id-83429" stroke-width="2" fill="transparent" class="invisible-element-box individual-element" x="226" y="207" width="43" height="56"></rect><rect data-element-id="element-id-38954" stroke-width="2" fill="transparent" class="invisible-element-box individual-element" x="280" y="208" width="45" height="53"></rect><rect data-element-id="element-id-44965" stroke-width="2" fill="transparent" class="invisible-element-box individual-element" x="335" y="208" width="45" height="53"></rect><rect data-element-id="element-id-76661" stroke-width="2" fill="transparent" class="invisible-element-box individual-element" x="177" y="208" width="42" height="53"></rect><rect data-element-id="element-id-78946" stroke-width="2" fill="transparent" class="invisible-element-box individual-element" x="389" y="208" width="40" height="53"></rect><rect data-element-id="element-id-15072" stroke-width="2" fill="transparent" class="invisible-element-box individual-element" x="143" y="208" width="28" height="53"></rect></svg>