<svg version="1.1" xmlns="http://www.w3.org/2000/svg" xmlns:xlink="http://www.w3.org/1999/xlink" class="thumbnail-icon" viewBox="0.00002193450927734375 9.5367431640625e-7 199.9999542236328 200.00001525878906"><g data-paper-data="{&quot;fillRule&quot;:&quot;nonzero&quot;,&quot;isIcon&quot;:true,&quot;iconStyle&quot;:&quot;standalone&quot;,&quot;selectedEffects&quot;:{&quot;container&quot;:&quot;circle_simple_outline1&quot;,&quot;transformation&quot;:&quot;rotate0;translate50&quot;,&quot;pattern&quot;:&quot;&quot;},&quot;bounds&quot;:{&quot;x&quot;:194.23411514385265,&quot;y&quot;:115.00000000000003,&quot;width&quot;:161.5317697122947,&quot;height&quot;:161.531826248434},&quot;widthRatioIconToContainer&quot;:0.5955844630042391,&quot;heightRatioIconToContainer&quot;:0.7280820914378524,&quot;relativeBoundsIconToContainer&quot;:{&quot;top&quot;:-0.0043032277597806375,&quot;left&quot;:-4.876182348782032e-7},&quot;iconType&quot;:&quot;initial&quot;,&quot;initialText&quot;:&quot;K&quot;,&quot;rawInitialId&quot;:419,&quot;blockLetter&quot;:&quot;O&quot;,&quot;blockLetterId&quot;:0,&quot;monogramSpecial&quot;:&quot;volume&quot;}"><path d="M59.06988,41.02397l-16.00469,-7.34641l16.00469,-7.34641l16.00469,7.34641zM140.66755,41.02397l-16.00469,-7.34641l16.00469,-7.34641l16.00469,7.34641zM40.44148,163.81403v-127.25038l16.7918,7.60879v36.20733l1.04949,1.8366l21.5145,9.70776l2.36135,-0.52474l38.56867,-55.62285l17.31655,8.13353l-39.61816,54.31099v21.25213l36.99444,50.11304l-13.90571,-6.29693l-41.19239,-56.40996l-20.46501,-9.44539l-2.62372,1.8366v72.15228zM60.90649,77.49367v-33.32123l16.7918,-7.60879v33.32123zM141.45467,171.94756l-39.61816,-54.57336v-17.31655l40.1429,-55.62285l17.57892,-7.87116v15.47994l-33.84598,46.17746v2.36135l33.84598,46.17746v17.05418zM87.66842,76.70655l-7.87116,11.28199l-16.26706,-7.60879l16.00469,-7.34641zM77.69829,109.76542v54.04862l-16.7918,7.60879v-69.26619zM29.28936,29.2893c9.2265,-9.22649 19.82175,-16.36991 31.78574,-21.43026c12.38719,-5.23936 25.36214,-7.85904 38.92486,-7.85904c13.56267,0 26.53763,2.61968 38.92486,7.85904c11.9642,5.06031 22.55938,12.20373 31.78555,21.43026c9.2266,9.22654 16.3701,19.82179 21.43049,31.78577c5.2394,12.38719 7.8591,25.36214 7.8591,38.92486c0,13.56272 -2.6197,26.53769 -7.8591,38.92493c-5.06039,11.96376 -12.20389,22.55895 -21.43049,31.78555c-9.22617,9.2266 -19.82135,16.3701 -31.78555,21.43049c-12.3868,5.2394 -25.36175,7.8591 -38.92486,7.8591c-13.56246,0 -26.53741,-2.6197 -38.92486,-7.8591c-11.9638,-5.06039 -22.55905,-12.20389 -31.78574,-21.43049c-9.22651,-9.2266 -16.36995,-19.82178 -21.43029,-31.78555c-5.23936,-12.38723 -7.85904,-25.36221 -7.85904,-38.92493c0,-13.56272 2.61968,-26.53767 7.85904,-38.92486c5.06035,-11.96398 12.20378,-22.55924 21.43029,-31.78577zM31.13179,168.86786c8.98695,8.98691 19.3064,15.94468 30.95835,20.8733c12.0628,5.102 24.69942,7.653 37.90983,7.653c13.21029,0 25.84694,-2.551 37.90996,-7.653c11.65169,-4.92863 21.9712,-11.88639 30.95855,-20.8733c8.98691,-8.98691 15.94446,-19.30621 20.87265,-30.9579c5.102,-12.06302 7.653,-24.6997 7.653,-37.91003c0,-13.21046 -2.551,-25.8471 -7.653,-37.9099c-4.92819,-11.6519 -11.88574,-21.97133 -20.87265,-30.95829c-8.98691,-8.98693 -19.30643,-15.94459 -30.95855,-20.87298c-12.06302,-5.10209 -24.69968,-7.65313 -37.90996,-7.65313c-13.21046,0 -25.84707,2.55104 -37.90983,7.65313c-11.65199,4.9284 -21.97144,11.88606 -30.95835,20.87298c-8.98696,8.98695 -15.9446,19.30638 -20.87292,30.95829c-5.10213,12.0628 -7.6532,24.69944 -7.6532,37.9099c0,13.21033 2.55107,25.84701 7.6532,37.91003c4.92832,11.65169 11.88596,21.97099 20.87292,30.9579z" fill-rule="nonzero"></path></g></svg>